<?xml version="1.0" encoding="UTF-8" standalone="no"?><!DOCTYPE svg PUBLIC "-//W3C//DTD SVG 1.1//EN" "http://www.w3.org/Graphics/SVG/1.1/DTD/svg11.dtd"><svg width="100%" height="100%" viewBox="0 0 120 120" version="1.1" xmlns="http://www.w3.org/2000/svg" xmlns:xlink="http://www.w3.org/1999/xlink" xml:space="preserve" xmlns:serif="http://www.serif.com/" style="fill-rule:evenodd;clip-rule:evenodd;stroke-linecap:round;stroke-linejoin:round;stroke-miterlimit:1.5;"><g><ellipse cx="60" cy="59.997" rx="60" ry="59.997" style="fill:#fff;fill-opacity:0.75;"/><g><path d="M89.882,34.367c-1.859,-1.51 -4.595,-1.226 -6.105,0.633c-1.51,1.86 -1.227,4.595 0.633,6.106c1.859,1.51 4.595,1.226 6.105,-0.633c1.51,-1.86 1.227,-4.595 -0.633,-6.106Z" style="stroke:#101820;stroke-width:0.5px;"/><path d="M89.984,40.076c-1.86,-1.51 -4.595,-1.227 -6.106,0.633c-1.51,1.859 -1.226,4.595 0.633,6.105c1.86,1.51 4.595,1.226 6.106,-0.633c1.51,-1.859 1.226,-4.595 -0.633,-6.105Z" style="stroke:#101820;stroke-width:0.5px;"/><path d="M89.394,45.42c-1.86,-1.51 -4.595,-1.226 -6.105,0.633c-1.51,1.859 -1.227,4.595 0.633,6.105c1.859,1.51 4.595,1.227 6.105,-0.633c1.51,-1.859 1.226,-4.595 -0.633,-6.105Z" style="stroke:#101820;stroke-width:0.5px;"/><path d="M91.401,47.445c-1.859,-1.51 -4.595,-1.226 -6.105,0.633c-1.51,1.859 -1.227,4.595 0.633,6.105c1.859,1.51 4.595,1.227 6.105,-0.633c1.51,-1.859 1.227,-4.595 -0.633,-6.105Z" style="stroke:#101820;stroke-width:0.5px;"/><path d="M88.811,49.783c-1.859,-1.51 -4.595,-1.226 -6.105,0.633c-1.51,1.86 -1.226,4.595 0.633,6.105c1.86,1.511 4.595,1.227 6.105,-0.632c1.51,-1.86 1.227,-4.596 -0.633,-6.106Z" style="stroke:#101820;stroke-width:0.5px;"/><path d="M85.84,34.649c-1.423,-1.156 -3.517,-0.939 -4.673,0.484c-1.156,1.423 -0.939,3.517 0.485,4.673c1.423,1.156 3.517,0.939 4.673,-0.484c1.156,-1.424 0.938,-3.518 -0.485,-4.673Z" style="stroke:#101820;stroke-width:0.5px;"/><path d="M84.697,39.752c-1.079,-0.876 -2.666,-0.712 -3.542,0.367c-0.876,1.079 -0.711,2.666 0.368,3.542c1.078,0.876 2.665,0.711 3.541,-0.367c0.876,-1.079 0.712,-2.666 -0.367,-3.542Z" style="stroke:#101820;stroke-width:0.5px;"/></g><g><path d="M29.746,37.638c1.86,-1.51 4.595,-1.226 6.105,0.633c1.51,1.86 1.227,4.595 -0.633,6.105c-1.859,1.511 -4.595,1.227 -6.105,-0.632c-1.51,-1.86 -1.226,-4.596 0.633,-6.106Z" style="stroke:#101820;stroke-width:0.5px;"/><path d="M29.644,43.347c1.86,-1.51 4.596,-1.227 6.106,0.633c1.51,1.859 1.226,4.595 -0.633,6.105c-1.86,1.51 -4.595,1.226 -6.105,-0.633c-1.511,-1.86 -1.227,-4.595 0.632,-6.105Z" style="stroke:#101820;stroke-width:0.5px;"/><path d="M30.234,48.691c1.86,-1.51 4.595,-1.227 6.105,0.633c1.511,1.859 1.227,4.595 -0.632,6.105c-1.86,1.51 -4.596,1.227 -6.106,-0.633c-1.51,-1.859 -1.226,-4.595 0.633,-6.105Z" style="stroke:#101820;stroke-width:0.5px;"/><path d="M28.227,50.716c1.859,-1.51 4.595,-1.227 6.105,0.633c1.51,1.859 1.227,4.595 -0.633,6.105c-1.859,1.51 -4.595,1.227 -6.105,-0.633c-1.51,-1.859 -1.227,-4.595 0.633,-6.105Z" style="stroke:#101820;stroke-width:0.5px;"/><path d="M30.817,53.054c1.859,-1.51 4.595,-1.226 6.105,0.633c1.51,1.86 1.227,4.595 -0.633,6.105c-1.859,1.51 -4.595,1.227 -6.105,-0.633c-1.51,-1.859 -1.227,-4.595 0.633,-6.105Z" style="stroke:#101820;stroke-width:0.5px;"/><path d="M33.788,37.919c1.423,-1.155 3.517,-0.938 4.673,0.485c1.156,1.423 0.939,3.517 -0.485,4.673c-1.423,1.156 -3.517,0.939 -4.673,-0.485c-1.155,-1.423 -0.938,-3.517 0.485,-4.673Z" style="stroke:#101820;stroke-width:0.5px;"/><path d="M34.931,43.023c1.079,-0.876 2.666,-0.712 3.542,0.367c0.876,1.079 0.711,2.666 -0.367,3.542c-1.079,0.876 -2.666,0.711 -3.542,-0.367c-0.876,-1.079 -0.712,-2.666 0.367,-3.542Z" style="stroke:#101820;stroke-width:0.5px;"/></g><g><path d="M87.226,44.709c-1.859,-1.51 -4.595,-1.226 -6.105,0.633c-1.51,1.86 -1.226,4.595 0.633,6.105c1.86,1.511 4.595,1.227 6.105,-0.632c1.511,-1.86 1.227,-4.596 -0.633,-6.106Z"/><path d="M87.328,50.418c-1.859,-1.51 -4.595,-1.227 -6.105,0.633c-1.51,1.859 -1.227,4.595 0.633,6.105c1.859,1.51 4.595,1.226 6.105,-0.633c1.51,-1.86 1.227,-4.595 -0.633,-6.105Z"/><path d="M86.738,55.762c-1.859,-1.51 -4.595,-1.227 -6.105,0.633c-1.51,1.859 -1.226,4.595 0.633,6.105c1.859,1.51 4.595,1.227 6.105,-0.633c1.51,-1.859 1.227,-4.595 -0.633,-6.105Z"/><path d="M88.746,57.787c-1.86,-1.51 -4.595,-1.227 -6.106,0.633c-1.51,1.859 -1.226,4.595 0.633,6.105c1.86,1.51 4.595,1.227 6.106,-0.633c1.51,-1.859 1.226,-4.595 -0.633,-6.105Z"/><path d="M86.156,60.125c-1.86,-1.51 -4.595,-1.226 -6.105,0.633c-1.511,1.86 -1.227,4.595 0.632,6.105c1.86,1.51 4.596,1.227 6.106,-0.633c1.51,-1.859 1.226,-4.595 -0.633,-6.105Z"/><path d="M83.185,44.99c-1.424,-1.155 -3.517,-0.938 -4.673,0.485c-1.156,1.423 -0.939,3.517 0.484,4.673c1.423,1.156 3.517,0.939 4.673,-0.485c1.156,-1.423 0.939,-3.517 -0.484,-4.673Z"/><path d="M82.042,50.094c-1.079,-0.876 -2.666,-0.712 -3.542,0.367c-0.876,1.079 -0.712,2.666 0.367,3.542c1.079,0.876 2.666,0.711 3.542,-0.367c0.876,-1.079 0.711,-2.666 -0.367,-3.542Z"/></g><g><path d="M31.154,51.521c1.86,-1.51 4.595,-1.227 6.106,0.633c1.51,1.859 1.226,4.595 -0.633,6.105c-1.86,1.51 -4.595,1.227 -6.106,-0.633c-1.51,-1.859 -1.226,-4.595 0.633,-6.105Z"/><path d="M31.053,57.229c1.859,-1.51 4.595,-1.226 6.105,0.633c1.51,1.86 1.227,4.595 -0.633,6.106c-1.859,1.51 -4.595,1.226 -6.105,-0.633c-1.51,-1.86 -1.227,-4.596 0.633,-6.106Z"/><path d="M31.642,62.574c1.86,-1.51 4.596,-1.227 6.106,0.633c1.51,1.859 1.226,4.595 -0.633,6.105c-1.86,1.51 -4.595,1.226 -6.105,-0.633c-1.511,-1.86 -1.227,-4.595 0.632,-6.105Z"/><path d="M29.635,64.599c1.86,-1.51 4.595,-1.227 6.105,0.633c1.511,1.859 1.227,4.595 -0.632,6.105c-1.86,1.51 -4.596,1.226 -6.106,-0.633c-1.51,-1.86 -1.226,-4.595 0.633,-6.105Z"/><path d="M32.225,66.937c1.859,-1.51 4.595,-1.227 6.105,0.633c1.51,1.859 1.227,4.595 -0.633,6.105c-1.859,1.51 -4.595,1.227 -6.105,-0.633c-1.51,-1.859 -1.226,-4.595 0.633,-6.105Z"/><path d="M35.196,51.802c1.423,-1.156 3.517,-0.939 4.673,0.485c1.156,1.423 0.939,3.517 -0.484,4.673c-1.424,1.155 -3.517,0.938 -4.673,-0.485c-1.156,-1.423 -0.939,-3.517 0.484,-4.673Z"/><path d="M36.339,56.905c1.079,-0.876 2.666,-0.711 3.542,0.368c0.876,1.078 0.712,2.665 -0.367,3.541c-1.079,0.876 -2.666,0.712 -3.542,-0.367c-0.876,-1.079 -0.712,-2.666 0.367,-3.542Z"/></g><path d="M84.808,48.285c1.533,-0.98 3.585,-0.921 5.074,0.289c1.86,1.51 2.143,4.245 0.633,6.105c-0.016,0.02 -0.033,0.04 -0.049,0.059c1.415,1.56 1.519,3.965 0.151,5.649c-0.089,0.109 -0.181,0.212 -0.277,0.31c0.086,0.137 0.164,0.279 0.233,0.424c0.289,0.142 0.567,0.319 0.828,0.53c1.86,1.51 2.143,4.246 0.633,6.106c-0.541,0.666 -1.24,1.13 -2,1.382c-0.15,0.335 -0.347,0.657 -0.59,0.956c-1.51,1.859 -4.245,2.143 -6.105,0.633c-1.84,-1.494 -2.137,-4.188 -0.681,-6.046c-0.6,-1.429 -0.414,-3.136 0.631,-4.423c0.088,-0.108 0.18,-0.211 0.276,-0.309c-0.293,-0.471 -0.49,-0.989 -0.587,-1.523c-0.514,-0.027 -1.025,-0.211 -1.455,-0.56c-1.079,-0.876 -1.244,-2.463 -0.368,-3.542c0.121,-0.149 0.256,-0.28 0.401,-0.394c-1.337,-1.17 -1.518,-3.201 -0.389,-4.592c0.899,-1.106 2.364,-1.484 3.641,-1.054Z" style="stroke:#101820;stroke-width:0.5px;"/><path d="M80.697,56.986c1.533,-0.98 3.585,-0.921 5.074,0.288c1.859,1.51 2.143,4.246 0.633,6.106c-0.017,0.02 -0.033,0.039 -0.049,0.059c1.414,1.56 1.519,3.964 0.15,5.649c-0.088,0.108 -0.18,0.212 -0.276,0.309c0.086,0.138 0.163,0.28 0.233,0.425c0.289,0.142 0.567,0.318 0.828,0.53c1.859,1.51 2.143,4.246 0.633,6.105c-0.541,0.667 -1.24,1.131 -2,1.382c-0.151,0.336 -0.347,0.657 -0.59,0.956c-1.51,1.86 -4.246,2.143 -6.105,0.633c-1.84,-1.494 -2.137,-4.187 -0.681,-6.045c-0.601,-1.43 -0.415,-3.136 0.63,-4.423c0.089,-0.109 0.181,-0.212 0.277,-0.309c-0.294,-0.471 -0.491,-0.989 -0.587,-1.524c-0.515,-0.026 -1.026,-0.21 -1.456,-0.559c-1.078,-0.876 -1.243,-2.463 -0.367,-3.542c0.121,-0.149 0.255,-0.28 0.4,-0.394c-1.336,-1.171 -1.517,-3.202 -0.388,-4.592c0.899,-1.107 2.364,-1.484 3.641,-1.054Z" style="stroke:#101820;stroke-width:0.5px;"/><g><path d="M78.486,58.063c-1.86,-1.51 -4.595,-1.227 -6.105,0.633c-1.51,1.859 -1.227,4.595 0.633,6.105c1.859,1.51 4.595,1.226 6.105,-0.633c1.51,-1.859 1.226,-4.595 -0.633,-6.105Z" style="stroke:#090e12;stroke-width:0.5px;"/><path d="M78.587,63.771c-1.859,-1.51 -4.595,-1.226 -6.105,0.633c-1.51,1.86 -1.226,4.595 0.633,6.105c1.86,1.51 4.595,1.227 6.105,-0.633c1.511,-1.859 1.227,-4.595 -0.633,-6.105Z" style="stroke:#090e12;stroke-width:0.5px;"/><path d="M77.998,69.115c-1.86,-1.51 -4.595,-1.226 -6.105,0.633c-1.511,1.86 -1.227,4.596 0.632,6.106c1.86,1.51 4.596,1.226 6.106,-0.633c1.51,-1.86 1.226,-4.595 -0.633,-6.106Z" style="stroke:#090e12;stroke-width:0.5px;"/><path d="M80.005,71.14c-1.859,-1.51 -4.595,-1.226 -6.105,0.633c-1.51,1.86 -1.227,4.596 0.633,6.106c1.859,1.51 4.595,1.226 6.105,-0.633c1.51,-1.86 1.226,-4.595 -0.633,-6.106Z" style="stroke:#090e12;stroke-width:0.5px;"/><path d="M77.415,73.479c-1.859,-1.51 -4.595,-1.227 -6.105,0.633c-1.51,1.859 -1.227,4.595 0.633,6.105c1.859,1.51 4.595,1.226 6.105,-0.633c1.51,-1.86 1.227,-4.595 -0.633,-6.105Z" style="stroke:#090e12;stroke-width:0.5px;"/><path d="M74.444,58.344c-1.423,-1.156 -3.517,-0.939 -4.673,0.484c-1.156,1.424 -0.939,3.518 0.485,4.673c1.423,1.156 3.517,0.939 4.673,-0.484c1.155,-1.423 0.938,-3.517 -0.485,-4.673Z" style="stroke:#090e12;stroke-width:0.5px;"/><path d="M73.301,63.447c-1.079,-0.876 -2.666,-0.711 -3.542,0.367c-0.876,1.079 -0.711,2.666 0.367,3.542c1.079,0.876 2.666,0.712 3.542,-0.367c0.876,-1.079 0.712,-2.666 -0.367,-3.542Z" style="stroke:#090e12;stroke-width:0.5px;"/></g><path d="M34.79,65.175c-0.017,-0.019 -0.033,-0.039 -0.049,-0.059c-1.51,-1.86 -1.227,-4.595 0.633,-6.106c1.489,-1.209 3.54,-1.268 5.074,-0.288c1.277,-0.43 2.742,-0.052 3.641,1.054c1.129,1.391 0.948,3.421 -0.389,4.592c0.145,0.114 0.279,0.245 0.4,0.394c0.876,1.079 0.712,2.666 -0.367,3.542c-0.43,0.349 -0.941,0.533 -1.455,0.56c-0.097,0.534 -0.294,1.052 -0.587,1.523c0.096,0.097 0.188,0.201 0.276,0.309c1.045,1.287 1.231,2.993 0.63,4.423c1.456,1.858 1.159,4.551 -0.68,6.046c-1.86,1.51 -4.595,1.226 -6.106,-0.633c-0.242,-0.299 -0.439,-0.621 -0.59,-0.956c-0.759,-0.252 -1.458,-0.716 -1.999,-1.383c-1.511,-1.859 -1.227,-4.595 0.633,-6.105c0.26,-0.212 0.538,-0.388 0.828,-0.53c0.069,-0.145 0.147,-0.287 0.233,-0.425c-0.096,-0.097 -0.189,-0.2 -0.277,-0.309c-1.368,-1.685 -1.264,-4.089 0.151,-5.649Z" style="stroke:#101820;stroke-width:0.5px;"/><g><path d="M41.514,59.18c1.86,-1.51 4.595,-1.226 6.105,0.633c1.51,1.86 1.227,4.595 -0.633,6.105c-1.859,1.51 -4.595,1.227 -6.105,-0.633c-1.51,-1.859 -1.226,-4.595 0.633,-6.105Z" style="stroke:#101820;stroke-width:0.5px;"/><path d="M41.413,64.889c1.859,-1.511 4.595,-1.227 6.105,0.632c1.51,1.86 1.226,4.596 -0.633,6.106c-1.86,1.51 -4.595,1.226 -6.105,-0.633c-1.511,-1.86 -1.227,-4.595 0.633,-6.105Z" style="stroke:#101820;stroke-width:0.5px;"/><path d="M42.002,70.233c1.86,-1.51 4.595,-1.227 6.105,0.633c1.511,1.859 1.227,4.595 -0.632,6.105c-1.86,1.51 -4.596,1.227 -6.106,-0.633c-1.51,-1.859 -1.226,-4.595 0.633,-6.105Z" style="stroke:#101820;stroke-width:0.5px;"/><path d="M41.362,79.745c-0.76,-0.251 -1.459,-0.715 -2,-1.382c-1.51,-1.859 -1.226,-4.595 0.633,-6.105c1.859,-1.51 4.595,-1.227 6.105,0.633c0.243,0.299 0.439,0.62 0.59,0.956c0.76,0.251 1.459,0.715 2,1.382c1.51,1.859 1.227,4.595 -0.633,6.105c-1.859,1.51 -4.595,1.227 -6.105,-0.633c-0.243,-0.299 -0.439,-0.62 -0.59,-0.956Z" style="stroke:#101820;stroke-width:0.5px;"/><path d="M45.556,59.461c1.423,-1.156 3.517,-0.938 4.673,0.485c1.156,1.423 0.939,3.517 -0.485,4.673c-1.423,1.156 -3.517,0.939 -4.673,-0.485c-1.155,-1.423 -0.938,-3.517 0.485,-4.673Z" style="stroke:#101820;stroke-width:0.5px;"/><path d="M46.699,64.565c1.079,-0.876 2.666,-0.712 3.542,0.367c0.876,1.078 0.711,2.665 -0.367,3.542c-1.079,0.876 -2.666,0.711 -3.542,-0.368c-0.876,-1.078 -0.712,-2.665 0.367,-3.541Z" style="stroke:#101820;stroke-width:0.5px;"/></g><g><path d="M66.534,58.925c1.86,-1.51 4.595,-1.227 6.105,0.633c1.51,1.859 1.227,4.595 -0.633,6.105c-1.859,1.51 -4.595,1.227 -6.105,-0.633c-1.51,-1.859 -1.226,-4.595 0.633,-6.105Z"/><path d="M66.432,64.633c1.86,-1.51 4.596,-1.226 6.106,0.633c1.51,1.86 1.226,4.595 -0.633,6.105c-1.86,1.511 -4.595,1.227 -6.105,-0.633c-1.511,-1.859 -1.227,-4.595 0.632,-6.105Z"/><path d="M67.022,69.978c1.86,-1.511 4.595,-1.227 6.105,0.632c1.511,1.86 1.227,4.596 -0.632,6.106c-1.86,1.51 -4.596,1.226 -6.106,-0.633c-1.51,-1.86 -1.226,-4.595 0.633,-6.105Z"/><path d="M65.015,72.003c1.859,-1.511 4.595,-1.227 6.105,0.632c1.51,1.86 1.227,4.596 -0.633,6.106c-1.859,1.51 -4.595,1.226 -6.105,-0.633c-1.51,-1.86 -1.227,-4.595 0.633,-6.105Z"/><path d="M67.605,74.341c1.859,-1.51 4.595,-1.227 6.105,0.633c1.51,1.859 1.227,4.595 -0.633,6.105c-1.859,1.51 -4.595,1.226 -6.105,-0.633c-1.51,-1.859 -1.227,-4.595 0.633,-6.105Z"/><path d="M70.576,59.206c1.423,-1.156 3.517,-0.939 4.673,0.484c1.156,1.424 0.939,3.518 -0.485,4.673c-1.423,1.156 -3.517,0.939 -4.673,-0.484c-1.155,-1.423 -0.938,-3.517 0.485,-4.673Z"/><path d="M71.719,64.309c1.079,-0.876 2.666,-0.711 3.542,0.367c0.876,1.079 0.711,2.666 -0.367,3.542c-1.079,0.876 -2.666,0.712 -3.542,-0.367c-0.876,-1.079 -0.712,-2.666 0.367,-3.542Z"/></g><g><path d="M47.804,59.18c1.86,-1.51 4.595,-1.226 6.105,0.633c1.511,1.86 1.227,4.595 -0.633,6.105c-1.859,1.51 -4.595,1.227 -6.105,-0.633c-1.51,-1.859 -1.226,-4.595 0.633,-6.105Z"/><path d="M47.703,64.889c1.859,-1.511 4.595,-1.227 6.105,0.632c1.51,1.86 1.226,4.596 -0.633,6.106c-1.86,1.51 -4.595,1.226 -6.105,-0.633c-1.51,-1.86 -1.227,-4.595 0.633,-6.105Z"/><path d="M48.292,70.233c1.86,-1.51 4.595,-1.227 6.106,0.633c1.51,1.859 1.226,4.595 -0.633,6.105c-1.86,1.51 -4.595,1.227 -6.106,-0.633c-1.51,-1.859 -1.226,-4.595 0.633,-6.105Z"/><path d="M46.285,72.258c1.859,-1.51 4.595,-1.227 6.105,0.633c1.51,1.859 1.227,4.595 -0.633,6.105c-1.859,1.51 -4.595,1.227 -6.105,-0.633c-1.51,-1.859 -1.226,-4.595 0.633,-6.105Z"/><path d="M48.875,74.596c1.859,-1.51 4.595,-1.227 6.105,0.633c1.51,1.859 1.227,4.595 -0.633,6.105c-1.859,1.51 -4.595,1.227 -6.105,-0.633c-1.51,-1.859 -1.227,-4.595 0.633,-6.105Z"/><path d="M51.846,59.461c1.423,-1.156 3.517,-0.938 4.673,0.485c1.156,1.423 0.939,3.517 -0.484,4.673c-1.424,1.156 -3.518,0.939 -4.673,-0.485c-1.156,-1.423 -0.939,-3.517 0.484,-4.673Z"/><path d="M52.989,64.565c1.079,-0.876 2.666,-0.712 3.542,0.367c0.876,1.078 0.711,2.665 -0.367,3.542c-1.079,0.876 -2.666,0.711 -3.542,-0.368c-0.876,-1.078 -0.712,-2.665 0.367,-3.541Z"/></g><ellipse cx="59.824" cy="45.782" rx="22.884" ry="31.008" style="fill:#81461d;"/><path d="M54.224,41.104c0.011,-1.815 -2.268,-3.302 -5.086,-3.319c-2.819,-0.016 -5.115,1.443 -5.126,3.258c1.194,-0.537 3.075,-0.968 5.112,-0.956c2.037,0.012 3.912,0.466 5.1,1.017Z"/><path d="M76.18,41.104c0.011,-1.815 -2.268,-3.302 -5.086,-3.319c-2.818,-0.016 -5.115,1.443 -5.126,3.258c1.195,-0.537 3.075,-0.968 5.112,-0.956c2.037,0.012 3.912,0.466 5.1,1.017Z"/><path d="M42.851,36.302c0,0 4.815,-7.903 12.718,0" style="fill:none;stroke:#000;stroke-width:0.4px;"/><path d="M77.379,36.229c0,0 -4.815,-7.903 -12.718,0" style="fill:none;stroke:#000;stroke-width:0.4px;"/><path d="M54.912,48.123l9.734,0c0,1.787 -2.181,3.238 -4.867,3.238c-2.68,0 -4.856,-1.443 -4.867,-3.238Z" style="fill:#6b431c;"/><path d="M76.389,29.494c-1.439,-0.707 -2.43,-2.188 -2.43,-3.898c0,-2.395 1.945,-4.34 4.34,-4.34c2.029,0 3.734,1.395 4.209,3.277c1.438,0.708 2.43,2.188 2.43,3.898c0,0.192 -0.013,0.381 -0.037,0.566c0.109,-0.01 0.219,-0.015 0.331,-0.015c2,0 3.623,1.623 3.623,3.623c0,2 -1.623,3.623 -3.623,3.623c-0.188,0 -0.374,-0.014 -0.554,-0.042c-0.292,0.076 -0.598,0.116 -0.914,0.116c-1.976,0 -3.586,-1.586 -3.622,-3.554c-1.825,-0.191 -3.315,-1.515 -3.753,-3.254Z" style="stroke:#101820;stroke-width:0.5px;"/><path d="M67.357,58.21c-0.016,4.077 -3.307,7.357 -7.357,7.357c-4.061,0 -7.357,-3.297 -7.357,-7.357l14.714,0Z" style="fill:#653e25;"/><g><path d="M37.719,41.022c-0.609,-0.448 -1.3,-0.684 -2.003,-0.684c-2.212,0 -4.007,2.288 -4.007,5.106c0,2.819 1.795,5.107 4.007,5.107c0.703,0 1.394,-0.236 2.003,-0.685l0,-8.844Z" style="fill:#81461d;"/><path d="M35.999,42.891c0,0 -3.425,3.182 0,5.617" style="fill:none;stroke:#51392c;stroke-width:0.48px;"/></g><path d="M39.236,21.769c0.522,-0.222 1.097,-0.346 1.7,-0.346c2.395,0 4.34,1.945 4.34,4.341c0,1.657 -0.931,3.099 -2.299,3.83c-0.04,2.329 -1.919,4.214 -4.246,4.263c0.144,0.432 0.222,0.895 0.222,1.375c0,0.647 -0.141,1.261 -0.395,1.812c0.059,0.238 0.09,0.486 0.09,0.741c0,1.691 -1.373,3.064 -3.064,3.064c-1.177,0 -2.2,-0.666 -2.713,-1.641c-1.529,-0.672 -2.598,-2.2 -2.598,-3.976c0,-2.364 1.895,-4.289 4.247,-4.339c-0.144,-0.432 -0.223,-0.895 -0.223,-1.375c0,-1.145 0.445,-2.187 1.17,-2.963c-0.017,-0.157 -0.026,-0.317 -0.026,-0.479c0,-2.211 1.656,-4.038 3.795,-4.307Z" style="stroke:#101820;stroke-width:0.5px;"/><path d="M68.17,75.197c0,-2.009 -1.631,-3.64 -3.64,-3.64l-9.06,0c-2.009,0 -3.64,1.631 -3.64,3.64l0,7.279c0,2.009 1.631,3.64 3.64,3.64l9.06,0c2.009,0 3.64,-1.631 3.64,-3.64l0,-7.279Z" style="fill:#81461d;"/><path d="M42.552,28.124c-0.109,0.008 -0.219,0.012 -0.33,0.012c-2.396,0 -4.34,-1.944 -4.34,-4.34c0,-2.17 1.596,-3.971 3.678,-4.29c-0.001,-0.025 -0.001,-0.051 -0.001,-0.077c0,-2.395 1.945,-4.34 4.34,-4.34c0.308,0 0.608,0.032 0.898,0.093c0.818,-1.73 2.58,-2.927 4.619,-2.927c1.256,0 2.407,0.454 3.296,1.208c0.841,-0.751 1.951,-1.208 3.166,-1.208c1.126,0 2.161,0.392 2.976,1.047c0.478,-0.182 0.998,-0.281 1.54,-0.281c1.159,0 2.212,0.455 2.991,1.196c0.424,-0.139 0.878,-0.215 1.349,-0.215c1.444,0 2.724,0.707 3.513,1.793c0.599,-0.313 1.281,-0.49 2.003,-0.49c2.21,0 4.036,1.654 4.306,3.791c0.415,-0.132 0.857,-0.203 1.315,-0.203c2.396,0 4.341,1.944 4.341,4.34c0,2.194 -1.632,4.01 -3.747,4.3c-0.713,0.515 -1.59,0.819 -2.537,0.819c-2.396,0 -4.34,-1.944 -4.34,-4.34c0,-0.026 0,-0.051 0,-0.077c-1.168,-0.179 -2.184,-0.825 -2.851,-1.742c-0.599,0.313 -1.281,0.49 -2.003,0.49c-1.159,0 -2.212,-0.455 -2.991,-1.196c-0.424,0.139 -0.878,0.214 -1.349,0.214c-0.782,0 -1.515,-0.207 -2.149,-0.569c-0.697,0.402 -1.506,0.631 -2.367,0.631c-1.03,0 -1.984,-0.328 -2.762,-0.885c-0.729,0.767 -1.693,1.307 -2.776,1.505c0,0.028 0.001,0.056 0.001,0.084c0,1.833 -1.489,3.322 -3.322,3.322c-0.027,0 -0.053,0 -0.08,-0.001c-0.293,0.964 -1.149,1.683 -2.185,1.775c0.17,0.318 0.267,0.681 0.267,1.066c0,1.248 -1.014,2.262 -2.263,2.262c-1.248,0 -2.262,-1.014 -2.262,-2.262c0,-0.174 0.019,-0.343 0.056,-0.505Z" style="stroke:#101820;stroke-width:0.5px;"/><g><path d="M81.407,41.022c0.609,-0.448 1.3,-0.684 2.003,-0.684c2.212,0 4.007,2.288 4.007,5.106c0,2.819 -1.795,5.107 -4.007,5.107c-0.703,0 -1.394,-0.236 -2.003,-0.685l0,-8.844Z" style="fill:#81461d;"/><path d="M83.299,42.891c0,0 3.425,3.182 0,5.617" style="fill:none;stroke:#51392c;stroke-width:0.48px;"/></g><path d="M85.678,97.144c0,-9.248 -11.496,-16.745 -25.678,-16.745c-14.182,0 -25.678,7.497 -25.678,16.745l51.356,0Z" style="fill:#81461d;"/><path d="M68.68,81.565l0,15.584l-17.36,0l0,-15.584l0.085,0c0.57,3.378 4.204,5.967 8.595,5.967c4.391,0 8.025,-2.589 8.595,-5.967l0.085,0Z" style="fill:url(#_Linear1);"/><path d="M51.83,81.187l0,15.957l-17.508,0c0,0 -0.148,-12.409 17.508,-15.957Z" style="fill:#009aad;"/><path d="M68.17,81.06l0,15.956l17.508,0c0,0 0.148,-12.408 -17.508,-15.956Z" style="fill:#009aad;"/><g><path d="M35.881,54.391l0.282,0.869l0.544,-0.269l-0.087,0.6l0.913,0l-0.739,0.537l0.424,0.434l-0.598,0.103l0.282,0.868l-0.739,-0.537l-0.282,0.537l-0.282,-0.537l-0.739,0.537l0.282,-0.868l-0.597,-0.103l0.423,-0.434l-0.739,-0.537l0.913,0l-0.087,-0.6l0.544,0.269l0.282,-0.869Z" style="fill:#009aad;"/><path d="M34.979,48.674c-0.455,0.577 -0.356,1.414 0.221,1.869c0.577,0.455 1.414,0.355 1.869,-0.221c-0.38,-0.02 -0.875,-0.182 -1.292,-0.511c-0.417,-0.328 -0.691,-0.772 -0.798,-1.137Z" style="fill:#009aad;"/><path d="M35.881,51.845l0.258,0.793l0.834,0l-0.675,0.491l0.258,0.793l-0.675,-0.49l-0.675,0.49l0.258,-0.793l-0.675,-0.491l0.834,0l0.258,-0.793Z" style="fill:#009aad;"/><path d="M35.881,50.453l0,2.157" style="fill:none;stroke:#009aad;stroke-width:0.12px;"/><path d="M35.881,53.266l0,2.163" style="fill:none;stroke:#009aad;stroke-width:0.12px;"/></g><g><path d="M83.999,54.505l-0.282,0.868l-0.544,-0.268l0.087,0.6l-0.913,0l0.739,0.536l-0.424,0.435l0.598,0.102l-0.282,0.869l0.739,-0.537l0.282,0.537l0.282,-0.537l0.739,0.537l-0.283,-0.869l0.598,-0.102l-0.423,-0.435l0.739,-0.536l-0.914,0l0.088,-0.6l-0.544,0.268l-0.282,-0.868Z" style="fill:#009aad;"/><path d="M84.901,48.788c0.455,0.576 0.356,1.414 -0.221,1.868c-0.577,0.455 -1.414,0.356 -1.869,-0.221c0.38,-0.019 0.875,-0.182 1.292,-0.51c0.417,-0.329 0.691,-0.772 0.798,-1.137Z" style="fill:#009aad;"/><path d="M83.999,51.959l-0.258,0.793l-0.834,0l0.675,0.49l-0.258,0.793l0.675,-0.49l0.675,0.49l-0.258,-0.793l0.675,-0.49l-0.835,0l-0.257,-0.793Z" style="fill:#009aad;"/><path d="M83.999,50.566l0,2.157" style="fill:none;stroke:#009aad;stroke-width:0.12px;"/><path d="M83.999,53.379l0,2.164" style="fill:none;stroke:#009aad;stroke-width:0.12px;"/></g></g><defs><linearGradient id="_Linear1" x1="0" y1="0" x2="1" y2="0" gradientUnits="userSpaceOnUse" gradientTransform="matrix(2.85986e-14,9.70162,-9.70162,2.85986e-14,61.0212,87.8252)"><stop offset="0" style="stop-color:#5e2d5d;stop-opacity:1"/><stop offset="1" style="stop-color:#8a74ad;stop-opacity:1"/></linearGradient></defs></svg>